<?xml version="1.0" encoding="iso-8859-1"?>
<!-- Generator: Adobe Illustrator 19.0.0, SVG Export Plug-In . SVG Version: 6.00 Build 0)  -->
<svg version="1.1" id="Layer_1" xmlns="http://www.w3.org/2000/svg" xmlns:xlink="http://www.w3.org/1999/xlink" x="0px" y="0px"
	 viewBox="0 0 309.796 309.796" style="enable-background:new 0 0 309.796 309.796;" xml:space="preserve">
<g>
	<g>
		<g>
			<g id="XMLID_32_">
				<g>
					<g>
						<path style="fill:#2D213F;" d="M275.703,164.678c6.019,7.318,9.63,16.726,9.63,26.958c0,23.378-18.88,42.385-42.068,42.385
							c-0.032,0-0.032,0-0.032,0c-3.421,3.358-6.969,6.557-10.802,9.44c-6.747,5.1-13.97,9.313-21.541,12.64h45.49
							c4.498,0,8.141,3.675,8.141,8.205v37.285c0,4.53-3.643,8.205-8.141,8.205H80.471c-4.498,0-8.141-3.675-8.141-8.205v-37.285
							c0-4.53,3.643-8.205,8.141-8.205h43.969c-26.419-11.658-47.295-33.674-57.622-60.917H32.637c-4.498,0-8.173-3.675-8.173-8.205
							v-32.628c0-4.53,3.675-8.173,8.173-8.173h103.365c4.498,0,8.141,3.643,8.141,8.173v32.628c0,4.53-3.643,8.205-8.141,8.205
							h-16.219c11.277,14.128,28.51,23.22,47.865,23.22h0.539c12.64,0,24.931-4.15,35.669-11.943
							c-1.711-4.625-2.693-9.598-2.693-14.825c0-18.437,11.784-34.117,28.193-39.946c-2.249-31.646-28.352-56.862-60.347-57.369
							l-20.622,23.79c-2.946,3.421-8.078,3.77-11.467,0.792l-2.439-2.122l-10.264,11.848c-2.946,3.421-8.11,3.77-11.499,0.792
							L95.58,114.374c-3.39-2.978-3.77-8.173-0.792-11.594l10.264-11.848l-2.408-2.091c-3.39-2.978-3.738-8.173-0.792-11.594
							l55.341-63.894c2.978-3.39,8.11-3.738,11.499-0.792l2.408,2.122l10.295-11.879c2.978-3.39,8.11-3.77,11.499-0.792
							l17.169,15.079c3.39,2.978,3.738,8.173,0.792,11.562L200.56,40.532l2.408,2.122c3.263,2.851,3.675,7.698,1.109,11.119
							c41.878,14.984,72.004,55.183,72.004,102.415C276.083,159.04,275.924,161.859,275.703,164.678z M269.05,191.636
							c0-14.318-11.562-25.976-25.786-25.976c-14.223,0-25.818,11.658-25.818,25.976s11.594,25.976,25.818,25.976
							S269.05,205.955,269.05,191.636z M248.238,293.386V272.51H88.612v20.876C88.612,293.386,248.238,293.386,248.238,293.386z
							 M245.545,149.378c4.973,0.285,9.725,1.362,14.097,3.231c-1.584-40.833-29.556-74.792-67.252-85.277l-10.327,11.943
							C216.116,85.547,242.504,114.12,245.545,149.378z M222.674,230.347c0.443-0.348,0.855-0.729,1.299-1.077
							c-4.34-2.281-8.236-5.29-11.531-8.87c-13.336,9.408-28.542,14.382-44.191,14.382h-0.602c-28.89,0-54.011-15.966-67.411-39.597
							H84.589c14.54,31.615,46.25,53.631,83.06,53.631C187.669,248.815,206.676,242.448,222.674,230.347z M188.271,29.762
							l4.942-5.702l-4.878-4.277l-4.942,5.702L188.271,29.762z M159.286,80.605l26.831-30.981l-21.985-19.292l-26.831,30.981
							L159.286,80.605z M141.483,101.164l7.096-8.173l-21.985-19.324l-7.096,8.205L141.483,101.164z M127.861,178.775v-16.219
							H40.779v16.219H127.861z M117.313,111.681l4.91-5.67l-4.91-4.277l-4.91,5.67L117.313,111.681z"/>
					</g>
					<g>
						<path style="fill:#505967;" d="M243.264,165.66c14.223,0,25.786,11.658,25.786,25.976s-11.562,25.976-25.786,25.976
							c-14.223,0-25.818-11.657-25.818-25.976S229.041,165.66,243.264,165.66z M257.741,191.636c0-8.015-6.494-14.572-14.477-14.572
							s-14.477,6.557-14.477,14.572c0,8.046,6.494,14.572,14.477,14.572C251.247,206.208,257.741,199.682,257.741,191.636z"/>
					</g>
					<g>
						<path style="fill:#2D213F;" d="M243.264,177.064c7.983,0,14.477,6.557,14.477,14.572c0,8.046-6.494,14.572-14.477,14.572
							s-14.477-6.526-14.477-14.572C228.787,183.622,235.281,177.064,243.264,177.064z M247.034,191.636
							c0-2.091-1.711-3.801-3.77-3.801c-2.091,0-3.77,1.711-3.77,3.801s1.679,3.801,3.77,3.801
							C245.323,195.438,247.034,193.727,247.034,191.636z"/>
					</g>
					<g>
						<g>
							<rect x="88.612" y="272.51" style="fill:#505967;" width="159.625" height="20.876"/>
						</g>
					</g>
					<g>
						<path style="fill:#EAEEEF;" d="M259.642,152.609c-4.372-1.869-9.123-2.946-14.097-3.231
							c-3.041-35.258-29.429-63.831-63.483-70.103l10.327-11.943C230.086,77.817,258.058,111.776,259.642,152.609z"/>
					</g>
					<g>
						<path style="fill:#EAEEEF;" d="M243.264,187.835c2.059,0,3.77,1.711,3.77,3.801s-1.711,3.801-3.77,3.801
							c-2.091,0-3.77-1.711-3.77-3.801S241.174,187.835,243.264,187.835z"/>
					</g>
					<g>
						<path style="fill:#EAEEEF;" d="M223.972,229.27c-0.443,0.348-0.855,0.729-1.299,1.077
							c-15.997,12.101-35.004,18.468-55.025,18.468c-36.81,0-68.519-22.016-83.06-53.631h15.649
							c13.4,23.632,38.52,39.597,67.411,39.597h0.602c15.649,0,30.854-4.973,44.191-14.382
							C215.736,223.979,219.633,226.989,223.972,229.27z"/>
					</g>
					<g>
						<polygon style="fill:#EAEEEF;" points="193.213,24.06 188.271,29.762 183.393,25.485 188.335,19.783 						"/>
					</g>
					<g>
						<polygon style="fill:#EAEEEF;" points="186.117,49.624 159.286,80.605 137.301,61.313 164.133,30.332 						"/>
					</g>
					<g>
						<polygon style="fill:#505967;" points="148.579,92.991 141.483,101.164 119.498,81.872 126.594,73.667 						"/>
					</g>
					<g>
						<rect x="40.779" y="162.556" style="fill:#505967;" width="87.083" height="16.219"/>
					</g>
					<g>
						<polygon style="fill:#EAEEEF;" points="122.223,106.011 117.313,111.681 112.403,107.405 117.313,101.734 						"/>
					</g>
				</g>
			</g>
		</g>
		<g>
			<path style="fill:#C5CBCF;" d="M137.301,61.313l9.747,8.553c6.659-18.557,17.014-30.487,21.874-35.334l-4.79-4.201
				L137.301,61.313z"/>
		</g>
		<g>
			<path style="fill:#454D5B;" d="M142.436,87.596l-15.845-13.925l-7.096,8.205l21.601,18.953
				C141.287,96.191,141.743,91.775,142.436,87.596z"/>
		</g>
		<g>
			<path style="fill:#454D5B;" d="M248.238,293.386V272.51h-12.459c-25.871,11.591-80.392,20.309-131.451,20.876
				C104.328,293.386,248.238,293.386,248.238,293.386z"/>
		</g>
	</g>
</g>
<g>
</g>
<g>
</g>
<g>
</g>
<g>
</g>
<g>
</g>
<g>
</g>
<g>
</g>
<g>
</g>
<g>
</g>
<g>
</g>
<g>
</g>
<g>
</g>
<g>
</g>
<g>
</g>
<g>
</g>
</svg>
