<?xml version="1.0" encoding="iso-8859-1"?>
<!-- Generator: Adobe Illustrator 19.0.0, SVG Export Plug-In . SVG Version: 6.00 Build 0)  -->
<svg version="1.1" id="Layer_1" xmlns="http://www.w3.org/2000/svg" xmlns:xlink="http://www.w3.org/1999/xlink" x="0px" y="0px"
	 viewBox="0 0 456.738 456.738" style="enable-background:new 0 0 456.738 456.738;" xml:space="preserve">
<g id="XMLID_754_">
	<g>
		<g>
			<path d="M316.724,172.079c1.919,0.312,3.827,0.463,5.711,0.463c17.004,0,31.987-12.317,34.806-29.644
				c3.131-19.246-9.934-37.387-29.18-40.517c-1.919-0.312-3.828-0.463-5.711-0.463c-11.585,0-22.228,5.721-28.729,14.844
				c4.629,4.795,7.882,11.007,8.984,18.092c1.479,9.509-1.203,18.7-6.685,25.736C301.13,166.501,308.339,170.715,316.724,172.079z"
				/>
			<circle cx="172.737" cy="37.119" r="37.119"/>
			<path d="M181.109,260.321l6.056-73.67c-6.02,0.454-11.699-2.068-15.44-6.389l-37.16-43.172l45.7,30.283
				c3.773,2.501,8.325,3.475,12.737,2.787l79.272-12.332c9.844-1.531,16.583-10.753,15.052-20.597
				c-1.532-9.845-10.76-16.586-20.598-15.051l-72.363,11.257l-39.872-26.421l35.644,11.43l2.401-0.373l71.812-11.171
				c3.891-0.605,7.728-0.509,11.389,0.185c2.964-4.589,6.601-8.756,10.837-12.326c10.016-8.441,22.719-13.089,35.77-13.089
				c10.857,0,21.923,3.186,31.401,9.671c3.953-4.771,5.356-11.443,3.083-17.685c-3.41-9.362-13.766-14.185-23.123-10.777
				l-82.966,30.216h-79.322c-2.633-0.593,0.502-0.231-52.054-4.551c-14.952-1.229-28.07,9.896-29.299,24.848l-8.807,139.12
				l11.606,75.677L65.128,429.362c-3.161,11.53,3.623,23.439,15.153,26.6c11.525,3.161,23.438-3.622,26.6-15.153l28.958-105.621
				c0.804-2.932,0.981-6,0.52-9.005l-10.739-70.026l8.093,0.665l26.379,71.922l-21.571,101.858
				c-2.477,11.696,4.997,23.185,16.693,25.662c11.693,2.478,23.184-4.996,25.661-16.692l22.861-107.95
				c0.842-3.981,0.547-8.119-0.854-11.939L181.109,260.321z"/>
			<path d="M389.831,322.277c-0.467-0.816-0.974-1.613-1.564-2.361c-2.925-3.71-7.101-6.189-11.709-7.009
				c1.929-1.657,3.497-3.792,4.481-6.328c3.198-8.236-0.886-17.504-9.122-20.702l-51.581-20.027l-11.126-50.662l18.745,36.461
				l16.164,6.276l6.254-38.449c2.106-12.951-6.63-25.237-19.562-27.342c-8.664-1.41-31.637-5.15-42.132-6.857
				c-13.001-2.115-25.256,6.711-27.371,19.712c0,0-14.725,85.936-17.415,116.918c-0.351,4.039,1.808,11.346,5.717,15.177h-22.006
				c-8.386,0-15.185,6.799-15.185,15.185v89.284c0,8.386,6.799,15.185,15.185,15.185c8.387,0,15.185-6.799,15.185-15.185v-24.97
				h60.139v24.97c0,8.386,6.799,15.185,15.185,15.185s15.185-6.799,15.185-15.185l0.112-93.544l17.527,1.341l-13.657,85.15
				c-1.679,10.468,5.446,20.315,15.914,21.993c10.472,1.678,20.315-5.45,21.994-15.913l16.959-105.738
				C392.846,330.483,391.995,326.059,389.831,322.277z M302.93,396.337L302.93,396.337H242.79v-28.882h60.139V396.337z
				 M288.727,305.057c-9.002-2.128-13.783-11.783-13.424-20.537l2.659-62.467l12.965,59.036c1.149,5.232,4.841,9.542,9.835,11.48
				l46.313,17.982C347.076,310.551,302.987,308.427,288.727,305.057z"/>
		</g>
	</g>
</g>
<g>
</g>
<g>
</g>
<g>
</g>
<g>
</g>
<g>
</g>
<g>
</g>
<g>
</g>
<g>
</g>
<g>
</g>
<g>
</g>
<g>
</g>
<g>
</g>
<g>
</g>
<g>
</g>
<g>
</g>
</svg>
